<?xml version="1.0" encoding="utf-8"?>
<!-- Generator: Adobe Illustrator 21.1.0, SVG Export Plug-In . SVG Version: 6.00 Build 0)  -->
<!DOCTYPE svg PUBLIC "-//W3C//DTD SVG 1.1//EN" "http://www.w3.org/Graphics/SVG/1.1/DTD/svg11.dtd" [
	<!ENTITY ns_extend "http://ns.adobe.com/Extensibility/1.0/">
	<!ENTITY ns_ai "http://ns.adobe.com/AdobeIllustrator/10.0/">
	<!ENTITY ns_graphs "http://ns.adobe.com/Graphs/1.0/">
	<!ENTITY ns_vars "http://ns.adobe.com/Variables/1.0/">
	<!ENTITY ns_imrep "http://ns.adobe.com/ImageReplacement/1.0/">
	<!ENTITY ns_sfw "http://ns.adobe.com/SaveForWeb/1.0/">
	<!ENTITY ns_custom "http://ns.adobe.com/GenericCustomNamespace/1.0/">
	<!ENTITY ns_adobe_xpath "http://ns.adobe.com/XPath/1.0/">
]>
<svg version="1.1" id="Phone_Active" xmlns:x="&ns_extend;" xmlns:i="&ns_ai;" xmlns:graph="&ns_graphs;"
	 xmlns="http://www.w3.org/2000/svg" xmlns:xlink="http://www.w3.org/1999/xlink" x="0px" y="0px" viewBox="0 0 320 320"
	 style="enable-background:new 0 0 320 320;" xml:space="preserve">
<style type="text/css">
	.st0{fill:url(#SVGID_1_);}
	.st1{opacity:0.4;fill:url(#SVGID_2_);}
	.st2{fill:#FFFFFF;}
	.st3{font-family:'Roboto-Regular';}
	.st4{font-size:25px;}
	.st5{letter-spacing:6;}
	.st6{fill:url(#SVGID_3_);}
	.st7{fill:url(#SVGID_4_);}
</style>
<switch>
	<g i:extraneous="self">
		<linearGradient id="SVGID_1_" gradientUnits="userSpaceOnUse" x1="116.0821" y1="254.3919" x2="256.5356" y2="-133.3184">
			<stop  offset="0" style="stop-color:#0DF9FF"/>
			<stop  offset="9.208472e-02" style="stop-color:#0DF9FF;stop-opacity:0.853"/>
			<stop  offset="0.6264" style="stop-color:#0DF9FF;stop-opacity:0"/>
		</linearGradient>
		<circle class="st0" cx="159.8" cy="133.6" r="101.9"/>
		<linearGradient id="SVGID_2_" gradientUnits="userSpaceOnUse" x1="-55.7969" y1="435.511" x2="216.9304" y2="53.6929">
			<stop  offset="0.2978" style="stop-color:#FFFFFF;stop-opacity:0"/>
			<stop  offset="0.3685" style="stop-color:#FAFAFA;stop-opacity:0.1007"/>
			<stop  offset="0.4554" style="stop-color:#EBEBEB;stop-opacity:0.2245"/>
			<stop  offset="0.5508" style="stop-color:#D2D2D2;stop-opacity:0.3603"/>
			<stop  offset="0.6523" style="stop-color:#AFAFAF;stop-opacity:0.5048"/>
			<stop  offset="0.7585" style="stop-color:#828282;stop-opacity:0.6562"/>
			<stop  offset="0.8689" style="stop-color:#4B4B4B;stop-opacity:0.8133"/>
			<stop  offset="0.9806" style="stop-color:#0C0C0C;stop-opacity:0.9724"/>
			<stop  offset="1" style="stop-color:#000000"/>
		</linearGradient>
		<circle class="st1" cx="159.8" cy="133.6" r="101.9"/>
		<g>
			
				<linearGradient id="SVGID_3_" gradientUnits="userSpaceOnUse" x1="4.0481" y1="287.9492" x2="320.4859" y2="-15.4029" gradientTransform="matrix(1 5.464556e-03 -5.464556e-03 1 -2.0192 -3.0212)">
				<stop  offset="0" style="stop-color:#00ADDC"/>
				<stop  offset="1" style="stop-color:#6BFBFF"/>
			</linearGradient>
			<path class="st6" d="M160,238.8c-0.2,0-0.4,0-0.6,0c-58-0.3-104.9-47.7-104.6-105.7C55.2,75.3,102.3,28.5,160,28.5
				c0.2,0,0.4,0,0.6,0c58,0.3,104.9,47.7,104.6,105.7l0,0C264.8,192,217.7,238.8,160,238.8z M160,32.2
				c-55.7,0-101.2,45.2-101.5,100.9c-0.3,55.9,45,101.7,100.9,102c0.2,0,0.4,0,0.6,0c55.7,0,101.2-45.2,101.5-100.9
				c0.3-55.9-45-101.7-100.9-102C160.4,32.2,160.2,32.2,160,32.2z"/>
			<linearGradient id="SVGID_4_" gradientUnits="userSpaceOnUse" x1="98.423" y1="134.5957" x2="225.5767" y2="134.5957">
				<stop  offset="0" style="stop-color:#00ADDC"/>
				<stop  offset="1" style="stop-color:#6BFBFF"/>
			</linearGradient>
			<path class="st7" d="M222.6,88.9l-13.4-13.4c-2.5-2.5-15.3-4.6-30.5-2.6c-14,1.9-34.6,8-52.8,26.2c-20.4,20.4-26,40.5-27.2,53.8
				c-1.3,15,2.6,25.9,4.8,28.2l12.8,12.8c2,2,4.7,3,7.3,3s5.3-1,7.3-3l16.9-21.6c1.9-1.9,2.9-4.5,2.9-7.2c0-2.8-1.1-5.4-3-7.3
				l-10.4-10.4c-3.3-3.3-8.9-2.9-9.1-2.9c0,0-0.8,0.1-1.2,0.6c-0.5,0.5-9.6,9.6-9.6,9.6l2.8,2.8l9-9c1.2,0,3.8,0.2,5.3,1.7
				l10.4,10.4c1.2,1.2,1.8,2.8,1.8,4.5c0,1.7-0.7,3.3-1.8,4.5L128,191.3c-2.5,2.4-6.4,2.4-8.9-0.1l-12.8-12.8
				c-1.1-1.2-4.9-10.8-3.7-25.2c1.1-12.6,6.5-31.7,26-51.2c32.1-32.1,74.2-26.4,77.7-23.7l13.4,13.4c2.4,2.4,2.5,6.4,0.1,8.9
				l-22,16.1l-0.2,0.2c-1.2,1.2-2.8,1.9-4.5,1.9c-1.7,0-3.3-0.7-4.5-1.8l-10.4-10.4c-1.4-1.4-2-3.3-1.8-5.2l9.5-9.5l-2.8-2.8
				l-8.8,8.8c-2.1,0.2-19.5,2.6-32.7,15.8c-4.8,4.8-8.7,10.8-11.4,17.6l3.7,1.5c2.5-6.4,6.1-11.8,10.5-16.3
				c9.9-9.9,22.6-13.2,28-14.2c0,2.7,1.1,5.3,3,7.2l10.4,10.4c1.9,1.9,4.5,3,7.3,3c2.7,0,5.3-1,7.2-2.9l22-16.1l0.2-0.2
				C226.6,99.5,226.6,93,222.6,88.9z"/>
		</g>
	</g>
</switch>
</svg>
