<?xml version="1.0" encoding="utf-8"?>
<!-- Generator: Adobe Illustrator 21.1.0, SVG Export Plug-In . SVG Version: 6.00 Build 0)  -->
<!DOCTYPE svg PUBLIC "-//W3C//DTD SVG 1.1//EN" "http://www.w3.org/Graphics/SVG/1.1/DTD/svg11.dtd" [
	<!ENTITY ns_extend "http://ns.adobe.com/Extensibility/1.0/">
	<!ENTITY ns_ai "http://ns.adobe.com/AdobeIllustrator/10.0/">
	<!ENTITY ns_graphs "http://ns.adobe.com/Graphs/1.0/">
	<!ENTITY ns_vars "http://ns.adobe.com/Variables/1.0/">
	<!ENTITY ns_imrep "http://ns.adobe.com/ImageReplacement/1.0/">
	<!ENTITY ns_sfw "http://ns.adobe.com/SaveForWeb/1.0/">
	<!ENTITY ns_custom "http://ns.adobe.com/GenericCustomNamespace/1.0/">
	<!ENTITY ns_adobe_xpath "http://ns.adobe.com/XPath/1.0/">
]>
<svg version="1.1" id="Connectivity_Inactive" xmlns:x="&ns_extend;" xmlns:i="&ns_ai;" xmlns:graph="&ns_graphs;"
	 xmlns="http://www.w3.org/2000/svg" xmlns:xlink="http://www.w3.org/1999/xlink" x="0px" y="0px" viewBox="0 0 320 320"
	 style="enable-background:new 0 0 320 320;" xml:space="preserve">
<style type="text/css">
	.st0{fill:#FFFFFF;}
	.st1{font-family:'Roboto-Regular';}
	.st2{font-size:25px;}
	.st3{letter-spacing:6;}
	.st4{fill:url(#SVGID_1_);}
	.st5{fill:url(#SVGID_2_);}
	.st6{fill:url(#SVGID_3_);}
	.st7{fill:url(#SVGID_4_);}
	.st8{fill:url(#SVGID_5_);}
	.st9{fill:url(#SVGID_6_);}
</style>
<switch>
	<g i:extraneous="self">
		<g>
			<g>
				
					<linearGradient id="SVGID_1_" gradientUnits="userSpaceOnUse" x1="162.7637" y1="227.3414" x2="162.7637" y2="-19.1675" gradientTransform="matrix(1 5.464556e-03 -5.464556e-03 1 -2.0192 -3.0212)">
					<stop  offset="0" style="stop-color:#00ADDC"/>
					<stop  offset="1" style="stop-color:#6BFBFF"/>
				</linearGradient>
				<path class="st4" d="M160,238.8c-0.2,0-0.4,0-0.6,0c-58-0.3-104.9-47.7-104.6-105.7C55.2,75.3,102.3,28.5,160,28.5
					c0.2,0,0.4,0,0.6,0c58,0.3,104.9,47.7,104.6,105.7l0,0C264.8,192,217.7,238.8,160,238.8z M160,32.2
					c-55.7,0-101.2,45.2-101.5,100.9c-0.3,55.9,45,101.7,100.9,102c0.2,0,0.4,0,0.6,0c55.7,0,101.2-45.2,101.5-100.9
					c0.3-55.9-45-101.7-100.9-102C160.4,32.2,160.2,32.2,160,32.2z"/>
			</g>
			<g>
				<linearGradient id="SVGID_2_" gradientUnits="userSpaceOnUse" x1="159.0142" y1="225.6395" x2="159.0142" y2="-20.8695">
					<stop  offset="0" style="stop-color:#00ADDC"/>
					<stop  offset="1" style="stop-color:#6BFBFF"/>
				</linearGradient>
				<path class="st5" d="M159,115.8c5.3,0,9.6,4.3,9.6,9.6c0,5.3-4.3,9.6-9.6,9.6c-5.3,0-9.6-4.3-9.6-9.6
					C149.4,120.1,153.7,115.8,159,115.8z"/>
				<g>
					<linearGradient id="SVGID_3_" gradientUnits="userSpaceOnUse" x1="159.0143" y1="225.6395" x2="159.0143" y2="-20.8695">
						<stop  offset="0" style="stop-color:#00ADDC"/>
						<stop  offset="1" style="stop-color:#6BFBFF"/>
					</linearGradient>
					<path class="st6" d="M159,73.3c-28.7,0-52.1,23.4-52.1,52.1c0,23.4,15.5,43.2,36.8,49.8V172c-19.6-6.5-33.7-24.9-33.7-46.6
						c0-27.1,22-49.1,49.1-49.1s49.1,22,49.1,49.1c0,21.8-14.2,40.2-33.9,46.6v3.2c21.4-6.5,36.9-26.4,36.9-49.9
						C211.1,96.7,187.8,73.3,159,73.3z"/>
					<linearGradient id="SVGID_4_" gradientUnits="userSpaceOnUse" x1="159.0143" y1="225.6395" x2="159.0143" y2="-20.8695">
						<stop  offset="0" style="stop-color:#00ADDC"/>
						<stop  offset="1" style="stop-color:#6BFBFF"/>
					</linearGradient>
					<path class="st7" d="M124.7,125.4c0-18.9,15.4-34.3,34.3-34.3s34.3,15.4,34.3,34.3c0,13.5-7.8,25.1-19.1,30.7v3.4
						c13-5.8,22.2-18.9,22.2-34.1c0-20.6-16.8-37.3-37.3-37.3c-20.6,0-37.3,16.8-37.3,37.3c0,15.1,9,28.2,22,34V156
						C132.4,150.4,124.7,138.8,124.7,125.4z"/>
					<linearGradient id="SVGID_5_" gradientUnits="userSpaceOnUse" x1="159.0142" y1="225.6395" x2="159.0142" y2="-20.8695">
						<stop  offset="0" style="stop-color:#00ADDC"/>
						<stop  offset="1" style="stop-color:#6BFBFF"/>
					</linearGradient>
					<circle class="st8" cx="159" cy="125.4" r="9.6"/>
					<linearGradient id="SVGID_6_" gradientUnits="userSpaceOnUse" x1="162.4019" y1="225.6395" x2="162.4019" y2="-20.8695">
						<stop  offset="0" style="stop-color:#00ADDC"/>
						<stop  offset="1" style="stop-color:#6BFBFF"/>
					</linearGradient>
					<path class="st9" d="M162,199.7v-9.5v-12.7v-3.1v-11.7v-3.1v-11.4v-6h-5.8v6v11.4v3.1v11.7v3.1v12.7v9.5c0,5,4,9,8.9,9h3.5
						v-5.8h-3.5C163.4,202.9,162,201.4,162,199.7z"/>
				</g>
			</g>
		</g>
	</g>
</switch>
</svg>
