<?xml version="1.0" encoding="utf-8"?>
<!-- Generator: Adobe Illustrator 21.1.0, SVG Export Plug-In . SVG Version: 6.00 Build 0)  -->
<!DOCTYPE svg PUBLIC "-//W3C//DTD SVG 1.1//EN" "http://www.w3.org/Graphics/SVG/1.1/DTD/svg11.dtd" [
	<!ENTITY ns_extend "http://ns.adobe.com/Extensibility/1.0/">
	<!ENTITY ns_ai "http://ns.adobe.com/AdobeIllustrator/10.0/">
	<!ENTITY ns_graphs "http://ns.adobe.com/Graphs/1.0/">
	<!ENTITY ns_vars "http://ns.adobe.com/Variables/1.0/">
	<!ENTITY ns_imrep "http://ns.adobe.com/ImageReplacement/1.0/">
	<!ENTITY ns_sfw "http://ns.adobe.com/SaveForWeb/1.0/">
	<!ENTITY ns_custom "http://ns.adobe.com/GenericCustomNamespace/1.0/">
	<!ENTITY ns_adobe_xpath "http://ns.adobe.com/XPath/1.0/">
]>
<svg version="1.1" id="Multimedia_Active" xmlns:x="&ns_extend;" xmlns:i="&ns_ai;" xmlns:graph="&ns_graphs;"
	 xmlns="http://www.w3.org/2000/svg" xmlns:xlink="http://www.w3.org/1999/xlink" x="0px" y="0px" viewBox="0 0 320 320"
	 style="enable-background:new 0 0 320 320;" xml:space="preserve">
<style type="text/css">
	.st0{fill:url(#SVGID_1_);}
	.st1{opacity:0.4;fill:url(#SVGID_2_);}
	.st2{fill:#FFFFFF;}
	.st3{font-family:'Roboto-Regular';}
	.st4{font-size:25px;}
	.st5{letter-spacing:6;}
	.st6{fill:url(#SVGID_3_);}
	.st7{fill:url(#SVGID_4_);}
	.st8{fill:url(#SVGID_5_);}
</style>
<switch>
	<g i:extraneous="self">
		<linearGradient id="SVGID_1_" gradientUnits="userSpaceOnUse" x1="116.0821" y1="254.3919" x2="256.5356" y2="-133.3184">
			<stop  offset="0" style="stop-color:#0DF9FF"/>
			<stop  offset="9.208472e-02" style="stop-color:#0DF9FF;stop-opacity:0.853"/>
			<stop  offset="0.6264" style="stop-color:#0DF9FF;stop-opacity:0"/>
		</linearGradient>
		<circle class="st0" cx="159.8" cy="133.6" r="101.9"/>
		<linearGradient id="SVGID_2_" gradientUnits="userSpaceOnUse" x1="-55.7969" y1="435.511" x2="216.9304" y2="53.6929">
			<stop  offset="0.2978" style="stop-color:#FFFFFF;stop-opacity:0"/>
			<stop  offset="0.3685" style="stop-color:#FAFAFA;stop-opacity:0.1007"/>
			<stop  offset="0.4554" style="stop-color:#EBEBEB;stop-opacity:0.2245"/>
			<stop  offset="0.5508" style="stop-color:#D2D2D2;stop-opacity:0.3603"/>
			<stop  offset="0.6523" style="stop-color:#AFAFAF;stop-opacity:0.5048"/>
			<stop  offset="0.7585" style="stop-color:#828282;stop-opacity:0.6562"/>
			<stop  offset="0.8689" style="stop-color:#4B4B4B;stop-opacity:0.8133"/>
			<stop  offset="0.9806" style="stop-color:#0C0C0C;stop-opacity:0.9724"/>
			<stop  offset="1" style="stop-color:#000000"/>
		</linearGradient>
		<circle class="st1" cx="159.8" cy="133.6" r="101.9"/>
		<g>
			
				<linearGradient id="SVGID_3_" gradientUnits="userSpaceOnUse" x1="4.0481" y1="287.9492" x2="320.4859" y2="-15.4029" gradientTransform="matrix(1 5.464556e-03 -5.464556e-03 1 -2.0192 -3.0212)">
				<stop  offset="0" style="stop-color:#00ADDC"/>
				<stop  offset="1" style="stop-color:#6BFBFF"/>
			</linearGradient>
			<path class="st6" d="M160,238.8c-0.2,0-0.4,0-0.6,0c-58-0.3-104.9-47.7-104.6-105.7C55.2,75.3,102.3,28.5,160,28.5
				c0.2,0,0.4,0,0.6,0c58,0.3,104.9,47.7,104.6,105.7l0,0C264.8,192,217.7,238.8,160,238.8z M160,32.2
				c-55.7,0-101.2,45.2-101.5,100.9c-0.3,55.9,45,101.7,100.9,102c0.2,0,0.4,0,0.6,0c55.7,0,101.2-45.2,101.5-100.9
				c0.3-55.9-45-101.7-100.9-102C160.4,32.2,160.2,32.2,160,32.2z"/>
			<linearGradient id="SVGID_4_" gradientUnits="userSpaceOnUse" x1="140.7214" y1="202.2363" x2="187.0212" y2="68.7049">
				<stop  offset="0" style="stop-color:#00ADDC"/>
				<stop  offset="1" style="stop-color:#6BFBFF"/>
			</linearGradient>
			<path class="st7" d="M114.7,190.9c-6.4,0-12-2.6-14.8-7.5c-2.9-4.9-5.4-14.5,9.6-23.2c4.8-2.8,17.1-3.9,20.8-4l0.1,3.6
				c-4.6,0.1-15.5,1.4-19.1,3.5c-9.4,5.4-12.1,11.5-8.3,18.3c3.8,6.6,14.6,7.6,24,2.2c6.6-3.8,10.6-10.5,10.7-17.9l-0.1-0.7V95.4
				l71.9-14.2l0.1,71.3c0,6.7-3.3,16.4-12.5,21.8c-11.1,6.4-24.1,4.8-28.9-3.5c-2.9-4.9-5.4-14.5,9.6-23.2
				c4.4-2.5,14.4-3.8,18.8-3.9l0.1,3.6c-4.2,0.1-13.5,1.4-17.1,3.5c-6.4,3.7-13.1,9.9-8.3,18.3c3.8,6.6,14.6,7.6,24,2.2
				c7.9-4.5,10.7-12.8,10.7-18.5l-0.1-0.8V85.6l-64.7,12.7v66.8l0.1,0.7c0,8.7-4.7,16.6-12.5,21.1
				C124.1,189.6,119.2,190.9,114.7,190.9z"/>
			<linearGradient id="SVGID_5_" gradientUnits="userSpaceOnUse" x1="145.5055" y1="203.8951" x2="191.8053" y2="70.3637">
				<stop  offset="0" style="stop-color:#00ADDC"/>
				<stop  offset="1" style="stop-color:#6BFBFF"/>
			</linearGradient>
			<polygon class="st8" points="155.8,123.3 155,119.8 195.6,110.2 196.5,113.7 			"/>
		</g>
	</g>
</switch>
</svg>
