<?xml version="1.0" encoding="utf-8"?>
<!-- Generator: Adobe Illustrator 21.1.0, SVG Export Plug-In . SVG Version: 6.00 Build 0)  -->
<!DOCTYPE svg PUBLIC "-//W3C//DTD SVG 1.1//EN" "http://www.w3.org/Graphics/SVG/1.1/DTD/svg11.dtd" [
	<!ENTITY ns_extend "http://ns.adobe.com/Extensibility/1.0/">
	<!ENTITY ns_ai "http://ns.adobe.com/AdobeIllustrator/10.0/">
	<!ENTITY ns_graphs "http://ns.adobe.com/Graphs/1.0/">
	<!ENTITY ns_vars "http://ns.adobe.com/Variables/1.0/">
	<!ENTITY ns_imrep "http://ns.adobe.com/ImageReplacement/1.0/">
	<!ENTITY ns_sfw "http://ns.adobe.com/SaveForWeb/1.0/">
	<!ENTITY ns_custom "http://ns.adobe.com/GenericCustomNamespace/1.0/">
	<!ENTITY ns_adobe_xpath "http://ns.adobe.com/XPath/1.0/">
]>
<svg version="1.1" id="Settings_Active" xmlns:x="&ns_extend;" xmlns:i="&ns_ai;" xmlns:graph="&ns_graphs;"
	 xmlns="http://www.w3.org/2000/svg" xmlns:xlink="http://www.w3.org/1999/xlink" x="0px" y="0px" viewBox="0 0 320 320"
	 style="enable-background:new 0 0 320 320;" xml:space="preserve">
<style type="text/css">
	.st0{fill:url(#SVGID_1_);}
	.st1{opacity:0.4;fill:url(#SVGID_2_);}
	.st2{fill:#FFFFFF;}
	.st3{font-family:'Roboto-Regular';}
	.st4{font-size:25px;}
	.st5{letter-spacing:6;}
	.st6{fill:url(#SVGID_3_);}
	.st7{fill:url(#SVGID_4_);}
	.st8{fill:url(#SVGID_5_);}
</style>
<switch>
	<g i:extraneous="self">
		<linearGradient id="SVGID_1_" gradientUnits="userSpaceOnUse" x1="116.0821" y1="254.3919" x2="256.5356" y2="-133.3184">
			<stop  offset="0" style="stop-color:#0DF9FF"/>
			<stop  offset="9.208472e-02" style="stop-color:#0DF9FF;stop-opacity:0.853"/>
			<stop  offset="0.6264" style="stop-color:#0DF9FF;stop-opacity:0"/>
		</linearGradient>
		<circle class="st0" cx="159.8" cy="133.6" r="101.9"/>
		<linearGradient id="SVGID_2_" gradientUnits="userSpaceOnUse" x1="-55.7969" y1="435.511" x2="216.9304" y2="53.6929">
			<stop  offset="0.2978" style="stop-color:#FFFFFF;stop-opacity:0"/>
			<stop  offset="0.3685" style="stop-color:#FAFAFA;stop-opacity:0.1007"/>
			<stop  offset="0.4554" style="stop-color:#EBEBEB;stop-opacity:0.2245"/>
			<stop  offset="0.5508" style="stop-color:#D2D2D2;stop-opacity:0.3603"/>
			<stop  offset="0.6523" style="stop-color:#AFAFAF;stop-opacity:0.5048"/>
			<stop  offset="0.7585" style="stop-color:#828282;stop-opacity:0.6562"/>
			<stop  offset="0.8689" style="stop-color:#4B4B4B;stop-opacity:0.8133"/>
			<stop  offset="0.9806" style="stop-color:#0C0C0C;stop-opacity:0.9724"/>
			<stop  offset="1" style="stop-color:#000000"/>
		</linearGradient>
		<circle class="st1" cx="159.8" cy="133.6" r="101.9"/>
		<g>
			
				<linearGradient id="SVGID_3_" gradientUnits="userSpaceOnUse" x1="4.0481" y1="287.9492" x2="320.4859" y2="-15.4029" gradientTransform="matrix(1 5.464556e-03 -5.464556e-03 1 -2.0192 -3.0212)">
				<stop  offset="0" style="stop-color:#00ADDC"/>
				<stop  offset="1" style="stop-color:#6BFBFF"/>
			</linearGradient>
			<path class="st6" d="M160,238.8c-0.2,0-0.4,0-0.6,0c-58-0.3-104.9-47.7-104.6-105.7C55.2,75.3,102.3,28.5,160,28.5
				c0.2,0,0.4,0,0.6,0c58,0.3,104.9,47.7,104.6,105.7l0,0C264.8,192,217.7,238.8,160,238.8z M160,32.2
				c-55.7,0-101.2,45.2-101.5,100.9c-0.3,55.9,45,101.7,100.9,102c0.2,0,0.4,0,0.6,0c55.7,0,101.2-45.2,101.5-100.9
				c0.3-55.9-45-101.7-100.9-102C160.4,32.2,160.2,32.2,160,32.2z"/>
			<g>
				<g>
					<linearGradient id="SVGID_4_" gradientUnits="userSpaceOnUse" x1="79.1804" y1="226.0817" x2="282.752" y2="-4.8609">
						<stop  offset="0" style="stop-color:#00ADDC"/>
						<stop  offset="1" style="stop-color:#6BFBFF"/>
					</linearGradient>
					<path class="st7" d="M159.9,163.9c-16.3,0-29.5-13.2-29.5-29.4s13.2-29.4,29.5-29.4v3.9c-14.1,0-25.5,11.4-25.5,25.5
						c0,14,11.5,25.5,25.5,25.5c14.1,0,25.6-11.4,25.6-25.5h3.9C189.4,150.7,176.2,163.9,159.9,163.9z"/>
				</g>
				<g>
					<linearGradient id="SVGID_5_" gradientUnits="userSpaceOnUse" x1="79.2457" y1="226.1393" x2="282.8174" y2="-4.8033">
						<stop  offset="0" style="stop-color:#00ADDC"/>
						<stop  offset="1" style="stop-color:#6BFBFF"/>
					</linearGradient>
					<path class="st8" d="M171.7,197.3h-23.4c-2.2,0-4-1.8-4-3.9V181c-2-0.7-4-1.5-6-2.5l-8.8,8.8c-1.5,1.5-4,1.5-5.6-0.1
						l-16.6-16.6c-1.6-1.6-1.6-4.1-0.1-5.6l8.7-8.7c-1-2-1.8-4-2.5-6.1h-12.3c-2.2,0-3.9-1.8-3.9-4v-23.4c0-2.2,1.8-4,3.9-4h12.3
						c0.9-2.6,1.9-5.1,3.2-7.4l3.5,1.8c-1.4,2.6-2.5,5.3-3.4,8.1l-0.4,1.4h-15.2l0,23.5l15.2,0.1l0.4,1.4c0.9,2.8,2,5.5,3.4,8
						l0.7,1.3L110,167.8l16.6,16.6l10.9-10.8l1.3,0.7c2.6,1.4,5.2,2.5,8,3.3l1.4,0.4v15.4l23.5,0l0.1-15.4l1.4-0.4
						c2.7-0.8,5.4-1.9,7.9-3.3l1.3-0.7l10.9,10.9l16.6-16.6l-10.8-11l0.7-1.3c1.4-2.6,2.5-5.2,3.3-7.9l0.4-1.4h15.4l0-23.5
						l-15.3-0.1l-0.4-1.4c-0.8-2.8-1.9-5.5-3.3-8l-0.7-1.3l10.8-10.8l-16.6-16.6l-10.8,10.7l-1.3-0.7c-2.6-1.4-5.3-2.5-8.1-3.4
						l-1.4-0.4V75.6l-23.5,0l-0.1,15.1l-1.4,0.4c-2.8,0.9-5.6,2-8.1,3.4l-1.3,0.7l-10.7-10.7L107.2,104c-1.5-1.5-1.5-4,0.1-5.6
						l16.5-16.5c0.8-0.8,1.8-1.3,2.9-1.2c1,0,2,0.4,2.7,1.1l8.7,8.6c2-1,4-1.8,6.2-2.5V75.6c0-2.2,1.8-3.9,4-3.9h23.4
						c2.2,0,4,1.8,4,3.9v12.3c2.1,0.7,4.1,1.6,6.1,2.5l8.7-8.7c0.7-0.7,1.7-1.1,2.7-1.1h0c1.1,0,2.1,0.4,2.9,1.2l16.6,16.6
						c0.8,0.8,1.2,1.8,1.2,2.9c0,1-0.4,2-1.1,2.7l-8.8,8.8c1,2,1.8,4,2.5,6h12.4c2.2,0,3.9,1.8,3.9,4v23.4c0,2.2-1.8,4-3.9,4h-12.5
						c-0.7,2-1.5,4-2.5,6l8.9,8.9c1.5,1.5,1.5,4-0.1,5.6l-16.6,16.6c-0.8,0.8-1.8,1.2-2.9,1.2h0c-1,0-2-0.4-2.7-1.1l-8.9-8.9
						c-1.9,1-3.9,1.8-5.9,2.5v12.5C175.7,195.6,173.9,197.3,171.7,197.3z"/>
				</g>
			</g>
		</g>
	</g>
</switch>
</svg>
