<?xml version="1.0" encoding="utf-8"?>
<!-- Generator: Adobe Illustrator 21.1.0, SVG Export Plug-In . SVG Version: 6.00 Build 0)  -->
<!DOCTYPE svg PUBLIC "-//W3C//DTD SVG 1.1//EN" "http://www.w3.org/Graphics/SVG/1.1/DTD/svg11.dtd" [
	<!ENTITY ns_extend "http://ns.adobe.com/Extensibility/1.0/">
	<!ENTITY ns_ai "http://ns.adobe.com/AdobeIllustrator/10.0/">
	<!ENTITY ns_graphs "http://ns.adobe.com/Graphs/1.0/">
	<!ENTITY ns_vars "http://ns.adobe.com/Variables/1.0/">
	<!ENTITY ns_imrep "http://ns.adobe.com/ImageReplacement/1.0/">
	<!ENTITY ns_sfw "http://ns.adobe.com/SaveForWeb/1.0/">
	<!ENTITY ns_custom "http://ns.adobe.com/GenericCustomNamespace/1.0/">
	<!ENTITY ns_adobe_xpath "http://ns.adobe.com/XPath/1.0/">
]>
<svg version="1.1" id="Mixer_Active_1_" xmlns:x="&ns_extend;" xmlns:i="&ns_ai;" xmlns:graph="&ns_graphs;"
	 xmlns="http://www.w3.org/2000/svg" xmlns:xlink="http://www.w3.org/1999/xlink" x="0px" y="0px" viewBox="0 0 320 320"
	 style="enable-background:new 0 0 320 320;" xml:space="preserve">
<style type="text/css">
	.st0{fill:url(#SVGID_1_);}
	.st1{opacity:0.4;fill:url(#SVGID_2_);}
	.st2{fill:#FFFFFF;}
	.st3{font-family:'Roboto-Regular';}
	.st4{font-size:25px;}
	.st5{letter-spacing:6;}
	.st6{fill:url(#SVGID_3_);}
	.st7{fill:url(#SVGID_4_);}
	.st8{fill:url(#SVGID_5_);}
	.st9{fill:url(#SVGID_6_);}
	.st10{fill:url(#SVGID_7_);}
	.st11{fill:url(#SVGID_8_);}
	.st12{fill:url(#SVGID_9_);}
	.st13{fill:url(#SVGID_10_);}
	.st14{fill:url(#SVGID_11_);}
	.st15{fill:url(#SVGID_12_);}
	.st16{fill:url(#SVGID_13_);}
	.st17{fill:url(#SVGID_14_);}
	.st18{fill:url(#SVGID_15_);}
</style>
<switch>
	<g i:extraneous="self">
		<linearGradient id="SVGID_1_" gradientUnits="userSpaceOnUse" x1="116.0821" y1="254.3919" x2="256.5356" y2="-133.3184">
			<stop  offset="0" style="stop-color:#0DF9FF"/>
			<stop  offset="9.208472e-02" style="stop-color:#0DF9FF;stop-opacity:0.853"/>
			<stop  offset="0.6264" style="stop-color:#0DF9FF;stop-opacity:0"/>
		</linearGradient>
		<circle class="st0" cx="159.8" cy="133.6" r="101.9"/>
		<linearGradient id="SVGID_2_" gradientUnits="userSpaceOnUse" x1="-55.7969" y1="435.511" x2="216.9304" y2="53.6929">
			<stop  offset="0.2978" style="stop-color:#FFFFFF;stop-opacity:0"/>
			<stop  offset="0.3685" style="stop-color:#FAFAFA;stop-opacity:0.1007"/>
			<stop  offset="0.4554" style="stop-color:#EBEBEB;stop-opacity:0.2245"/>
			<stop  offset="0.5508" style="stop-color:#D2D2D2;stop-opacity:0.3603"/>
			<stop  offset="0.6523" style="stop-color:#AFAFAF;stop-opacity:0.5048"/>
			<stop  offset="0.7585" style="stop-color:#828282;stop-opacity:0.6562"/>
			<stop  offset="0.8689" style="stop-color:#4B4B4B;stop-opacity:0.8133"/>
			<stop  offset="0.9806" style="stop-color:#0C0C0C;stop-opacity:0.9724"/>
			<stop  offset="1" style="stop-color:#000000"/>
		</linearGradient>
		<circle class="st1" cx="159.8" cy="133.6" r="101.9"/>
		<g>
			
				<linearGradient id="SVGID_3_" gradientUnits="userSpaceOnUse" x1="113.6835" y1="245.222" x2="205.1835" y2="41.222" gradientTransform="matrix(1 5.464556e-03 -5.464556e-03 1 -2.0192 -3.0212)">
				<stop  offset="0" style="stop-color:#00ADDC"/>
				<stop  offset="1" style="stop-color:#6BFBFF"/>
			</linearGradient>
			<path class="st6" d="M160,238.8c-0.2,0-0.4,0-0.6,0c-58-0.3-104.9-47.7-104.6-105.7C55.2,75.3,102.3,28.5,160,28.5
				c0.2,0,0.4,0,0.6,0c58,0.3,104.9,47.7,104.6,105.7l0,0C264.8,192,217.7,238.8,160,238.8z M160,32.2
				c-55.7,0-101.2,45.2-101.5,100.9c-0.3,55.9,45,101.7,100.9,102c0.2,0,0.4,0,0.6,0c55.7,0,101.2-45.2,101.5-100.9
				c0.3-55.9-45-101.7-100.9-102C160.4,32.2,160.2,32.2,160,32.2z"/>
			<g id="mixer_1_">
				<linearGradient id="SVGID_4_" gradientUnits="userSpaceOnUse" x1="63.2808" y1="222.6149" x2="154.7808" y2="18.6149">
					<stop  offset="0" style="stop-color:#00ADDC"/>
					<stop  offset="1" style="stop-color:#6BFBFF"/>
				</linearGradient>
				<rect x="113.2" y="75.7" class="st7" width="4.5" height="61.2"/>
				<linearGradient id="SVGID_5_" gradientUnits="userSpaceOnUse" x1="91.1007" y1="235.093" x2="182.6007" y2="31.093">
					<stop  offset="0" style="stop-color:#00ADDC"/>
					<stop  offset="1" style="stop-color:#6BFBFF"/>
				</linearGradient>
				<rect x="113.2" y="163.6" class="st8" width="4.5" height="34.5"/>
				<linearGradient id="SVGID_6_" gradientUnits="userSpaceOnUse" x1="82.6103" y1="231.2848" x2="174.1103" y2="27.2848">
					<stop  offset="0" style="stop-color:#00ADDC"/>
					<stop  offset="1" style="stop-color:#6BFBFF"/>
				</linearGradient>
				<rect x="142.5" y="75.7" class="st9" width="4.5" height="34.3"/>
				<linearGradient id="SVGID_7_" gradientUnits="userSpaceOnUse" x1="111.0053" y1="244.0208" x2="202.5053" y2="40.0207">
					<stop  offset="0" style="stop-color:#00ADDC"/>
					<stop  offset="1" style="stop-color:#6BFBFF"/>
				</linearGradient>
				<rect x="142.5" y="139.8" class="st10" width="4.5" height="58.3"/>
				<linearGradient id="SVGID_8_" gradientUnits="userSpaceOnUse" x1="111.9398" y1="244.4399" x2="203.4398" y2="40.4399">
					<stop  offset="0" style="stop-color:#00ADDC"/>
					<stop  offset="1" style="stop-color:#6BFBFF"/>
				</linearGradient>
				<rect x="171.7" y="75.7" class="st11" width="4.5" height="61.2"/>
				<linearGradient id="SVGID_9_" gradientUnits="userSpaceOnUse" x1="139.8845" y1="256.9739" x2="231.3845" y2="52.9739">
					<stop  offset="0" style="stop-color:#00ADDC"/>
					<stop  offset="1" style="stop-color:#6BFBFF"/>
				</linearGradient>
				<rect x="171.7" y="164.2" class="st12" width="4.5" height="33.9"/>
				<linearGradient id="SVGID_10_" gradientUnits="userSpaceOnUse" x1="129.5747" y1="252.3497" x2="221.0747" y2="48.3497">
					<stop  offset="0" style="stop-color:#00ADDC"/>
					<stop  offset="1" style="stop-color:#6BFBFF"/>
				</linearGradient>
				<rect x="202.8" y="75.7" class="st13" width="4.5" height="16.7"/>
				<linearGradient id="SVGID_11_" gradientUnits="userSpaceOnUse" x1="158.3318" y1="265.2481" x2="249.8318" y2="61.2481">
					<stop  offset="0" style="stop-color:#00ADDC"/>
					<stop  offset="1" style="stop-color:#6BFBFF"/>
				</linearGradient>
				<rect x="202.8" y="124.1" class="st14" width="4.5" height="74"/>
				<linearGradient id="SVGID_12_" gradientUnits="userSpaceOnUse" x1="79.7003" y1="229.9795" x2="171.2003" y2="25.9795">
					<stop  offset="0" style="stop-color:#00ADDC"/>
					<stop  offset="1" style="stop-color:#6BFBFF"/>
				</linearGradient>
				<path class="st15" d="M115.4,141.4c-4.9,0-8.9,4-8.9,8.9c0,4.9,4,8.9,8.9,8.9c4.9,0,8.9-4,8.9-8.9
					C124.3,145.4,120.3,141.4,115.4,141.4z M115.4,154.8c-2.5,0-4.5-2-4.5-4.4c0-2.5,2-4.5,4.5-4.5c2.5,0,4.5,2,4.5,4.5
					C119.9,152.8,117.9,154.8,115.4,154.8z"/>
				<linearGradient id="SVGID_13_" gradientUnits="userSpaceOnUse" x1="94.2263" y1="236.4949" x2="185.7263" y2="32.4949">
					<stop  offset="0" style="stop-color:#00ADDC"/>
					<stop  offset="1" style="stop-color:#6BFBFF"/>
				</linearGradient>
				<path class="st16" d="M144.4,115.8c-4.9,0-8.9,4-8.9,8.9s4,8.9,8.9,8.9c4.9,0,8.9-4,8.9-8.9S149.3,115.8,144.4,115.8z
					 M144.4,129.2c-2.5,0-4.5-2-4.5-4.5c0-2.5,2-4.5,4.5-4.5c2.5,0,4.4,2,4.4,4.5C148.8,127.2,146.8,129.2,144.4,129.2z"/>
				<linearGradient id="SVGID_14_" gradientUnits="userSpaceOnUse" x1="128.3697" y1="251.8092" x2="219.8697" y2="47.8092">
					<stop  offset="0" style="stop-color:#00ADDC"/>
					<stop  offset="1" style="stop-color:#6BFBFF"/>
				</linearGradient>
				<path class="st17" d="M173.9,141.4c-4.9,0-8.9,4-8.9,8.9c0,4.9,4,8.9,8.9,8.9c4.9,0,8.9-4,8.9-8.9
					C182.8,145.4,178.8,141.4,173.9,141.4z M173.9,154.8c-2.5,0-4.4-2-4.4-4.4c0-2.5,2-4.5,4.4-4.5c2.5,0,4.5,2,4.5,4.5
					C178.3,152.8,176.3,154.8,173.9,154.8z"/>
				<linearGradient id="SVGID_15_" gradientUnits="userSpaceOnUse" x1="138.8425" y1="256.5066" x2="230.3425" y2="52.5066">
					<stop  offset="0" style="stop-color:#00ADDC"/>
					<stop  offset="1" style="stop-color:#6BFBFF"/>
				</linearGradient>
				<path class="st18" d="M205,100c-4.9,0-8.9,4-8.9,8.9c0,4.9,4,8.9,8.9,8.9c4.9,0,8.9-4,8.9-8.9C213.9,104,209.9,100,205,100z
					 M205,113.4c-2.5,0-4.4-2-4.4-4.5c0-2.5,2-4.5,4.4-4.5c2.5,0,4.5,2,4.5,4.5C209.5,111.4,207.5,113.4,205,113.4z"/>
			</g>
		</g>
	</g>
</switch>
</svg>
